<?xml version="1.0" encoding="iso-8859-1"?>
<!-- Generator: Adobe Illustrator 18.1.1, SVG Export Plug-In . SVG Version: 6.00 Build 0)  -->
<svg version="1.1" id="Capa_1" xmlns="http://www.w3.org/2000/svg" xmlns:xlink="http://www.w3.org/1999/xlink" x="0px" y="0px"
	 viewBox="0 0 27.965 27.965" style="enable-background:new 0 0 27.965 27.965;" xml:space="preserve">
<g>
	<g id="c124_arrow">
		<path style="fill:#FFFFFF;" d="M23.43,12.929c-0.021-0.021-0.043-0.034-0.064-0.052c-0.025-0.029-0.047-0.061-0.07-0.09
			l-6.273-6.269c-0.812-0.813-2.099-0.845-2.871-0.071c-0.773,0.772-0.741,2.061,0.071,2.872l3.054,3.056H5.967
			c-1.096,0-1.984,0.886-1.984,1.979c0.002,1.096,0.889,1.983,1.984,1.983h11.254l-3.041,3.037
			c-0.824,0.826-0.867,2.122-0.094,2.896c0.775,0.772,2.069,0.731,2.895-0.095l6.354-6.354
			C24.161,14.997,24.203,13.701,23.43,12.929z"/>
		<path style="fill:#FFFFFF;" d="M13.983,0C6.262,0,0,6.261,0,13.985c0,7.721,6.262,13.979,13.983,13.979
			c7.724,0,13.982-6.259,13.982-13.979C27.966,6.261,21.707,0,13.983,0z M13.983,26.535c-6.933,0-12.551-5.619-12.551-12.549
			c0-6.934,5.619-12.551,12.551-12.551s12.551,5.617,12.551,12.551C26.534,20.916,20.915,26.535,13.983,26.535z"/>
	</g>
</g>
<g>
</g>
<g>
</g>
<g>
</g>
<g>
</g>
<g>
</g>
<g>
</g>
<g>
</g>
<g>
</g>
<g>
</g>
<g>
</g>
<g>
</g>
<g>
</g>
<g>
</g>
<g>
</g>
<g>
</g>
</svg>
