<?xml version="1.0" encoding="iso-8859-1"?>
<!-- Generator: Adobe Illustrator 18.0.0, SVG Export Plug-In . SVG Version: 6.00 Build 0)  -->
<!DOCTYPE svg PUBLIC "-//W3C//DTD SVG 1.1//EN" "http://www.w3.org/Graphics/SVG/1.1/DTD/svg11.dtd">
<svg version="1.1" id="Capa_1" xmlns="http://www.w3.org/2000/svg" xmlns:xlink="http://www.w3.org/1999/xlink" x="0px" y="0px"
	 viewBox="0 0 60 60" style="enable-background:new 0 0 60 60;" xml:space="preserve">
<path fill="#B03868" d="M53.496,44.271c-1.131-0.313-2.299-0.354-3.429-0.128c-0.356,0.069-0.712-0.005-0.967-0.211l-1.411-1.132
	c-0.397-0.318-0.521-0.88-0.301-1.364c0.401-0.882,0.733-1.804,0.986-2.739c0.247-0.912,1.266-1.494,2.119-1.167
	c1.859,0.717,3.944,0.609,5.726-0.31c3.236-1.668,4.665-5.733,3.185-9.063C58.28,25.632,55.769,24,53.003,24
	c-1.017,0-2.005,0.218-2.934,0.647c-0.313,0.145-0.654,0.354-1.039,0.636c-0.866,0.634-2.042,0.395-2.586-0.515
	c-0.574-0.96-1.265-1.819-1.961-2.684c-0.636-0.791-0.744-1.889-0.277-2.795l1.479-2.87c0.421-0.817,1.177-1.373,1.975-1.452
	c0.741-0.073,1.476-0.274,2.183-0.598c2.248-1.028,3.824-3.132,4.112-5.489c0.246-2.006-0.374-4.018-1.701-5.518
	c-1.564-1.769-3.955-2.631-6.314-2.283c-2.959,0.44-5.359,2.81-5.836,5.763c-0.22,1.358-0.049,2.73,0.494,3.965
	c0.359,0.819,0.36,1.688,0.003,2.382l-1.158,2.249c-0.583,1.13-1.94,1.735-3.104,1.374c-1.059-0.331-2.824-0.555-4.119-0.685
	c-0.362-0.036-0.663-0.298-0.747-0.651l-1.139-4.804c-0.063-0.265,0.017-0.55,0.218-0.783c1.205-1.392,1.696-3.233,1.347-5.056
	c-0.45-2.334-2.306-4.224-4.618-4.703C26.858,0.044,26.431,0,26.009,0c-3.309,0-6,2.691-6,6c0,2.485,1.57,4.738,3.908,5.605
	c0.328,0.122,0.555,0.352,0.621,0.632l0.912,3.852c0.1,0.419-0.143,0.849-0.563,1.001c-1.347,0.485-2.632,1.131-3.821,1.919
	c-0.435,0.289-1.077,0.28-1.46-0.029c-0.516-0.418-0.49-1.053-0.313-1.47c0.743-1.744,0.911-3.667,0.485-5.563
	c-0.768-3.412-3.595-6.139-7.034-6.784C9.474,4.55,6.158,5.746,4.074,8.264c-1.717,2.073-2.409,4.804-1.898,7.491
	c0.682,3.592,3.561,6.442,7.165,7.095c1.519,0.272,3.057,0.17,4.481-0.299c0.43-0.145,0.941,0.026,1.242,0.401l0.4,0.497
	c0.312,0.389,0.347,0.92,0.088,1.354c-1.282,2.149-2.087,4.497-2.392,6.977c-0.066,0.534-0.477,0.939-0.997,0.986l-1.983,0.174
	c-0.297,0-0.602-0.139-0.86-0.392c-0.94-0.917-2.137-1.449-3.462-1.539c-2.218-0.138-4.321,1.079-5.275,3.036
	c-0.737,1.516-0.764,3.248-0.069,4.754s2.012,2.608,3.616,3.024c2.28,0.591,4.784-0.424,6.026-2.42
	c0.179-0.288,0.531-0.481,0.941-0.519l1.729-0.15c0.479,0,0.902,0.316,1.054,0.787c0.701,2.175,1.801,4.177,3.272,5.952
	c0.166,0.199,0.155,0.5-0.025,0.7c-0.207,0.229-0.447,0.192-0.642,0.133c-0.833-0.267-1.704-0.363-2.608-0.276
	c-2.974,0.282-5.417,2.631-5.81,5.584c-0.249,1.875,0.316,3.758,1.551,5.167c1.513,1.729,3.867,2.536,6.165,2.097
	c2.317-0.442,4.257-2.199,4.942-4.477c0.313-1.043,0.367-2.1,0.162-3.142c-0.03-0.152,0.02-0.318,0.132-0.442l0.785-0.872
	c0.162-0.18,0.44-0.235,0.641-0.127c0.517,0.282,1.056,0.541,1.6,0.77c0.664,0.279,1.062,1.003,0.991,1.799
	c-0.062,0.689-0.019,1.391,0.128,2.083c0.616,2.926,3.126,5.185,6.104,5.492C31.517,59.987,31.765,60,32.009,60c3.86,0,7-3.141,7-7
	c0-0.438-0.042-0.879-0.124-1.313c-0.157-0.814,0.168-1.577,0.828-1.943c1.038-0.576,2.021-1.256,2.923-2.021
	c0.322-0.273,0.706-0.397,0.998-0.323c0.45,0.113,0.672,0.378,0.778,0.579c0.15,0.284,0.17,0.628,0.055,0.942
	c-0.449,1.223-0.57,2.562-0.35,3.871c0.537,3.18,3.147,5.704,6.348,6.138c0.347,0.047,0.698,0.07,1.044,0.07
	c2.111,0,4.136-0.896,5.556-2.461c1.438-1.585,2.116-3.64,1.908-5.785C58.676,47.693,56.475,45.088,53.496,44.271z M50.009,30
	c0.552,0,1,0.448,1,1c0,0.552-0.448,1-1,1s-1-0.448-1-1C49.009,30.448,49.457,30,50.009,30z M39.009,21c0.552,0,1,0.448,1,1
	c0,0.552-0.448,1-1,1s-1-0.448-1-1C38.009,21.448,38.457,21,39.009,21z M34.009,25c0.552,0,1,0.448,1,1c0,0.552-0.448,1-1,1
	s-1-0.448-1-1C33.009,25.448,33.457,25,34.009,25z M23.009,39c-0.552,0-1-0.448-1-1c0-0.552,0.448-1,1-1s1,0.448,1,1
	C24.009,38.552,23.561,39,23.009,39z M24.009,33c-2.206,0-4-1.794-4-4s1.794-4,4-4s4,1.794,4,4S26.215,33,24.009,33z M32.009,49
	c-3.309,0-6-2.691-6-6s2.691-6,6-6s6,2.691,6,6S35.317,49,32.009,49z M43.009,42c-0.552,0-1-0.448-1-1c0-0.552,0.448-1,1-1
	s1,0.448,1,1C44.009,41.552,43.561,42,43.009,42z M41.009,36c-2.206,0-4-1.794-4-4s1.794-4,4-4s4,1.794,4,4S43.215,36,41.009,36z"/>
<g>
</g>
<g>
</g>
<g>
</g>
<g>
</g>
<g>
</g>
<g>
</g>
<g>
</g>
<g>
</g>
<g>
</g>
<g>
</g>
<g>
</g>
<g>
</g>
<g>
</g>
<g>
</g>
<g>
</g>
</svg>
